<?xml version="1.0" encoding="utf-8"?>
<!-- Generator: Adobe Illustrator 16.0.4, SVG Export Plug-In . SVG Version: 6.00 Build 0)  -->
<!DOCTYPE svg PUBLIC "-//W3C//DTD SVG 1.1//EN" "http://www.w3.org/Graphics/SVG/1.1/DTD/svg11.dtd">
<svg version="1.1" id="Layer_1" xmlns="http://www.w3.org/2000/svg" xmlns:xlink="http://www.w3.org/1999/xlink" x="0px" y="0px"
	 width="152px" height="227px" viewBox="0 0 152 227" enable-background="new 0 0 152 227" xml:space="preserve">
<g>
	<g>
		<g>
			<g>
				<g>
					<path fill="#9E3623" d="M123.63,209.721c-4.542-4.082-14.854-6.938-26.866-6.938s-22.326,2.855-26.868,6.938h-2.481v5.155
						h0.064c0.668,6.167,13.505,11.09,29.285,11.09s28.615-4.923,29.283-11.09h0.063v-5.155H123.63z"/>
				</g>
			</g>
		</g>
		<g>
			<g>
				<g>
					<ellipse fill="#EB4024" cx="96.763" cy="209.721" rx="29.348" ry="11.59"/>
				</g>
			</g>
		</g>
		<g>
			<g>
				<g>
					<ellipse fill="#FDCC0A" cx="96.763" cy="209.721" rx="17.561" ry="6.936"/>
				</g>
			</g>
		</g>
	</g>
	<g>
		<g>
			<g>
				<g>
					<g>
						<path fill="none" stroke="#000000" stroke-width="4" stroke-miterlimit="10" d="M80.932,165.586
							c-5.002,0-9.057-3.092-9.057-6.904s4.055-6.904,9.057-6.904"/>
					</g>
				</g>
			</g>
		</g>
		<g>
			<g>
				<g>
					<path fill="none" stroke="#000000" stroke-width="4" stroke-miterlimit="10" d="M77.997,195.912
						c-2.5,0-4.528-3.091-4.528-6.904c0-3.812,2.028-6.903,4.528-6.903"/>
				</g>
			</g>
		</g>
		<g>
			<g>
				<g>
					<path fill="none" stroke="#000000" stroke-width="4" stroke-miterlimit="10" d="M77.167,207.29
						c-1.583,0-2.868-1.957-2.868-4.373c0-2.414,1.285-4.373,2.868-4.373"/>
				</g>
			</g>
		</g>
		<g>
			<g>
				<g>
					<path fill="none" stroke="#000000" stroke-width="4" stroke-miterlimit="10" d="M77.997,179.393c-2.5,0-4.528-3.09-4.528-6.903
						c0-3.812,2.028-6.903,4.528-6.903"/>
				</g>
			</g>
		</g>
		<g>
			<g>
				<g>
					<path d="M94.991,154.992c-11.132,0-20.156,3.53-20.156,7.887c0,4.355,9.024,7.886,20.156,7.886
						c11.129,0,20.154-3.53,20.154-7.886C115.145,158.522,106.12,154.992,94.991,154.992z M95.029,166.221
						c-7.909,0-14.32-1.623-14.32-3.625c0-2.001,6.411-3.624,14.32-3.624s14.319,1.623,14.319,3.624
						C109.348,164.598,102.938,166.221,95.029,166.221z"/>
				</g>
			</g>
		</g>
		<g>
			<g>
				<g>
					<path d="M94.991,171.507c-11.132,0-20.156,3.53-20.156,7.886c0,4.356,9.024,7.887,20.156,7.887
						c11.129,0,20.154-3.53,20.154-7.887C115.145,175.038,106.12,171.507,94.991,171.507z M95.029,182.737
						c-7.909,0-14.32-1.623-14.32-3.625c0-2.001,6.411-3.624,14.32-3.624s14.319,1.623,14.319,3.624
						C109.348,181.114,102.938,182.737,95.029,182.737z"/>
				</g>
			</g>
		</g>
		<g>
			<g>
				<g>
					<path d="M95.029,189.007c-11.13,0-20.154,3.531-20.154,7.887s9.024,7.887,20.154,7.887c11.131,0,20.154-3.531,20.154-7.887
						S106.16,189.007,95.029,189.007z M95.071,200.237c-7.909,0-14.32-1.623-14.32-3.625c0-2.001,6.411-3.623,14.32-3.623
						c7.908,0,14.319,1.622,14.319,3.623C109.39,198.614,102.979,200.237,95.071,200.237z"/>
				</g>
			</g>
		</g>
		<g>
			<g>
				<g>
					<circle cx="76.293" cy="207.29" r="2.13"/>
				</g>
			</g>
		</g>
	</g>
	<g>
		<g>
			<g>
				<path fill="#FDC90D" d="M40.078,68.148c0,0-20.508,1.061-23.336,0c0,0-7.072-2.122-8.486-7.425c0,0-3.992-12.342-3.145-19.729
					c0,0,1.377-8.558,11.631-11.74c0,0,16.265-6.718,44.905-6.364L65.89,0.613c0,0,5.657,6.718,6.718,11.315v8.839v3.536
					c0,0,4.597,2.475,5.657,8.486v25.104c0,0-6.011,24.751-10.254,35.358l74.253-2.475c0,0,6.364,0,7.779,2.475v28.641
					c0,0,1.061,24.043-22.63,28.994c0,0-26.765,8.132-76.728,0c0,0-23.69-2.476-22.629-28.994c0,0,1.415-16.619,4.243-25.458
					L40.078,68.148z"/>
			</g>
		</g>
	</g>
	<g>
		<g>
			<g>
				<path fill="#E29D25" d="M40.078,68.148l-8.815,32.1c0,0-3.215,13.82-3.21,24.804c0,0-0.968,18.829,18.788,24.983
					c0,0-19.845-1.271-23.027-16.828c0,0-2.122-11.105,0-24.116l11.042-40.716L40.078,68.148z"/>
			</g>
		</g>
	</g>
	<g>
		<g>
			<g>
				<path fill="#E6AA24" d="M10.7,64.645c0,0-6.903-1.8-9.978-11.701c0,0-1.876-8.486,0-14.144c0,0,3.29-10.961,16.373-13.083
					c0,0,28.64-4.95,38.541-4.95l4.95-20.154h5.304l-4.243,22.276c0,0-22.38-0.663-43.013,5.679c0,0-14.848,3.16-12.613,17.657
					C6.021,46.226,7.277,62.251,10.7,64.645z"/>
			</g>
		</g>
	</g>
	<g>
		<g>
			<g>
				<path fill="#F28121" d="M71.805,81.909c0,0-4.5-5.982-3.086-9.872c0,0,0.782-4.243,6.932-3.89L71.805,81.909z"/>
			</g>
		</g>
	</g>
	<g>
		<g>
			<g>
				<path fill="#F28121" d="M63.021,152.632c0,0,3.823-6.696,15.015-6.343c0,0,9.069-0.195,13.666,8.212
					C91.702,154.501,85.963,154.732,63.021,152.632z"/>
			</g>
		</g>
	</g>
	<g>
		<g>
			<g>
				<path fill="#F28121" d="M28.123,122.215c0,0,11.248,2.152,15.137,9.225c0,0,6.582,7.852,4.882,18.953
					C48.142,150.393,26.288,145.583,28.123,122.215z"/>
			</g>
		</g>
	</g>
	<g>
		<g>
			<g>
				<path fill="#F28121" d="M32.128,97.095c0,0,13.324,3.229,16.294-5.61c0,0,3.766-8.054-1.582-13.927c0,0-3.427-2.65-8.622-2.539
					L32.128,97.095z"/>
			</g>
		</g>
	</g>
	<g>
		<g>
			<g>
				<path fill="#F28121" d="M94.883,99.934c0,0-2.121,7.425,0,12.729c0,0,4.951,10.546,16.266,9.163c0,0,10.961-0.82,12.729-13.124
					c0,0,0-10.007-2.475-10.007L94.883,99.934z"/>
			</g>
		</g>
	</g>
	<g>
		<g>
			<g>
				<circle fill="#F28121" cx="63.273" cy="118.003" r="12.022"/>
			</g>
		</g>
	</g>
	<g>
		<g>
			<g>
				<circle fill="none" stroke="#9B772C" stroke-width="3" stroke-miterlimit="10" cx="51.125" cy="41.656" r="7.434"/>
			</g>
		</g>
	</g>
	<g>
		<g>
			<g>
				<circle fill="#FFFFFF" cx="51.125" cy="41.656" r="7.434"/>
			</g>
		</g>
	</g>
	<g>
		<g>
			<g>
				<circle cx="51.125" cy="41.656" r="4.769"/>
			</g>
		</g>
	</g>
	<g>
		<g>
			<g>
				<circle fill="#9B772C" cx="14.051" cy="42.907" r="1.914"/>
			</g>
		</g>
	</g>
	<g>
		<g>
			<g>
				<circle fill="#B63C26" cx="108.541" cy="145.29" r="4.761"/>
			</g>
		</g>
	</g>
	<g>
		<g>
			<g>
				<path fill="#D53A27" d="M60.586,69.668c0,0,4.754,3.288,7.857,0c0,0,0.982-1.102,2.043-5.023c0,0,7.072-0.592,13.083-1.196
					c0,0,13.79-3.551,14.851-10.151c0,0,1.062-1.749-1.414-8.477c0,0-2.122-2.786-5.304-3.166l-13.666,0.001v4.769
					c0,0,5.855-3.7,13.666,0c0,0,6.59,2.666,2.238,7.933c0,0-8.51,5.915-16.335,6.199l-14.584,1.462
					C63.021,62.019,57.993,62.938,60.586,69.668z"/>
			</g>
		</g>
	</g>
	<g>
		<g>
			<g>
				<path fill="#EA4224" d="M113.624,84.767l5.657-24.044c0,0,14.497-11.167,22.63,2.726l-3.395,28.744
					c0,0-57.208,6.061-62.866,0.806c0,0-3.457-1.277-3.604-4.106c0,0,0.167-2.505,5.315-2.549L113.624,84.767z"/>
			</g>
		</g>
	</g>
	<g>
		<g>
			<g>
				<path fill="#BD3927" d="M130.987,56.481c0,0,3.381-1.062,8.566,1.06c0,0,4.951,3.094,6.129,5.908l-3.771,34.222l-55.396,3.008
					c0,0-18.801-2.122-14.468-11.787c0,0,0.816,6.104,14.233,6.003c0,0,23.854-0.109,52.236-2.702l3.395-28.744
					C141.911,63.448,135.564,56.184,130.987,56.481z"/>
			</g>
		</g>
	</g>
	<g>
		<g>
			<g>
				<path fill="#E94025" d="M105.327,148.793l-20.697-4.918c0,0-4.86-5.889,1.695-7.571l22.217,4.226
					C108.542,140.53,100.566,141.985,105.327,148.793z"/>
			</g>
		</g>
	</g>
	<g>
		<g>
			<g>
				<circle fill="#B9C0BD" cx="65.334" cy="66.558" r="3.11"/>
			</g>
		</g>
	</g>
	<g>
		<g>
			<g>
				<ellipse fill="#B9C0BD" cx="114.331" cy="87.897" rx="3.109" ry="1.555"/>
			</g>
		</g>
	</g>
	<g>
		<g>
			<g>
				<ellipse fill="#B9C0BD" cx="83.215" cy="89.453" rx="3.109" ry="1.555"/>
			</g>
		</g>
	</g>
	<g>
		<g>
			<g>
				<path fill="#F28121" d="M130.686,150.036c0,0-4.688-5.514-3.626-17.182c0,0,0.354-9.547,11.668-14.497c0,0,4.243-1.769,11.315,0
					C150.043,118.357,152.518,143.108,130.686,150.036z"/>
			</g>
		</g>
	</g>
</g>
</svg>
